<svg xmlns="http://www.w3.org/2000/svg" version="1.1" xmlns:xlink="http://www.w3.org/1999/xlink" xmlns:svgjs="http://svgjs.dev/svgjs" width="1500" height="1500" viewBox="0 0 1500 1500"><rect width="1500" height="1500" fill="#ffffff"></rect><g transform="matrix(0.6666666666666666,0,0,0.6666666666666666,249.51430969439497,562.1964648421916)"><svg viewBox="0 0 396 149" data-background-color="#ffffff" preserveAspectRatio="xMidYMid meet" height="564" width="1500" xmlns="http://www.w3.org/2000/svg" xmlns:xlink="http://www.w3.org/1999/xlink"><g id="tight-bounds" transform="matrix(1,0,0,1,0.26943186764765414,-0.06202626536290268)"><svg viewBox="0 0 395.52 149.12714950454955" height="149.12714950454955" width="395.52"><g><svg viewBox="0 0 639.8855641240202 241.26292017325494" height="149.12714950454955" width="395.52"><g transform="matrix(1,0,0,1,244.36556412402032,45.383530994215505)"><svg viewBox="0 0 395.5199999999999 150.49585818482393" height="150.49585818482393" width="395.5199999999999"><g id="textblocktransform"><svg viewBox="0 0 395.5199999999999 150.49585818482393" height="150.49585818482393" width="395.5199999999999" id="textblock"><g><svg viewBox="0 0 395.5199999999999 90.93995717344752" height="90.93995717344752" width="395.5199999999999"><g transform="matrix(1,0,0,1,0,0)"><svg width="395.5199999999999" viewBox="0.75 -42.95 186.78 42.95" height="90.93995717344752" data-palette-color="#050750"><path d="M9.1 0L0.75 0 4.9-42.95 19.45-42.95 23.55 0 15.4 0 14.8-6.95 9.6-6.95 9.1 0ZM11.85-35.65L10.25-13.8 14.15-13.8 12.25-35.65 11.85-35.65ZM43.6 0L26.15 0 26.15-42.95 34.75-42.95 34.75-7.3 43.6-7.3 43.6 0ZM45.99 0L45.99-42.95 57.64-42.95Q62.34-42.95 64.47-40.65 66.59-38.35 66.59-33.15L66.59-33.15 66.59-31.25Q66.59-25.1 62.2-23.9L62.2-23.9Q64.89-23.2 66-20.65 67.09-18.1 67.09-13.9L67.09-13.9Q67.09-7.05 65.05-3.53 63 0 57.64 0L57.64 0 45.99 0ZM54.39-26.8L56.14-26.8Q57.24-26.8 57.64-27.63 58.05-28.45 58.05-29.95L58.05-29.95 58.05-34.25Q58.05-36.35 56.2-36.35L56.2-36.35 54.39-36.35 54.39-26.8ZM55.24-7.55Q58.59-7.55 58.59-10.75L58.59-10.75 58.59-16.1Q58.59-18.05 58.02-19.05 57.45-20.05 55.99-20.05L55.99-20.05 54.39-20.05 54.39-7.6 55.24-7.55ZM77.14 0L68.79 0 72.94-42.95 87.49-42.95 91.59 0 83.44 0 82.84-6.95 77.64-6.95 77.14 0ZM79.89-35.65L78.29-13.8 82.19-13.8 80.29-35.65 79.89-35.65ZM94.19 0L94.19-42.95 107.39-42.95Q110.54-42.95 112.27-41.53 113.99-40.1 114.59-37.52 115.19-34.95 115.19-30.95L115.19-30.95Q115.19-27.3 114.24-25.25 113.29-23.2 110.94-22.4L110.94-22.4Q112.89-22 113.77-20.45 114.64-18.9 114.64-16.25L114.64-16.25 114.54 0 106.14 0 106.14-16.8Q106.14-18.6 105.44-19.1 104.74-19.6 102.89-19.6L102.89-19.6 102.89 0 94.19 0ZM102.94-27.05L104.99-27.05Q106.79-27.05 106.79-30.95L106.79-30.95Q106.79-32.65 106.64-33.5 106.49-34.35 106.09-34.68 105.69-35 104.94-35L104.94-35 102.94-35 102.94-27.05ZM125.24 0L116.89 0 121.04-42.95 135.59-42.95 139.69 0 131.54 0 130.94-6.95 125.74-6.95 125.24 0ZM127.99-35.65L126.39-13.8 130.29-13.8 128.39-35.65 127.99-35.65ZM150.84 0L142.29 0 142.29-42.95 150.79-42.95 150.79-25.75 154.79-42.95 163.44-42.95 158.64-23.3 164.44 0 155.54 0 150.84-20.8 150.84 0ZM173.08 0L164.73 0 168.88-42.95 183.43-42.95 187.53 0 179.38 0 178.78-6.95 173.58-6.95 173.08 0ZM175.83-35.65L174.23-13.8 178.13-13.8 176.23-35.65 175.83-35.65Z" opacity="1" transform="matrix(1,0,0,1,0,0)" fill="#050750" class="wordmark-text-0" data-fill-palette-color="primary" id="text-0"></path></svg></g></svg></g><g transform="matrix(1,0,0,1,73.17119999999997,112.40869850312632)"><svg viewBox="0 0 249.17759999999998 38.08715968169761" height="38.08715968169761" width="249.17759999999998"><g transform="matrix(1,0,0,1,0,0)"><svg width="249.17759999999998" viewBox="3 -35.25 301.56 46.1" height="38.08715968169761" data-palette-color="#000000"><path d="M3-34.55L9.35-34.55 9.35 0 3 0 3-34.55ZM38.85-27.15Q41.5-27.15 43.1-25.1 44.7-23.05 44.7-19.6L44.7-19.6 44.7 0 38.65 0 38.65-18.95Q38.65-20.85 38.15-21.68 37.65-22.5 36.7-22.5L36.7-22.5Q34.75-22.5 32.95-18.8L32.95-18.8 32.95 0 26.95 0 26.95-18.95Q26.95-22.5 25.05-22.5L25.05-22.5Q23-22.5 21.25-18.8L21.25-18.8 21.25 0 15.2 0 15.2-26.45 20.55-26.45 20.95-23.05Q23.55-27.15 27.2-27.15L27.2-27.15Q29.05-27.15 30.4-26 31.75-24.85 32.45-22.75L32.45-22.75Q35.1-27.15 38.85-27.15L38.85-27.15ZM62.4-27.15Q66.3-27.15 68.3-23.58 70.3-20 70.3-13.3L70.3-13.3Q70.3-6.8 68.02-3.03 65.75 0.75 61.7 0.75L61.7 0.75Q58.5 0.75 56.35-2.1L56.35-2.1 56.35 10.15 50.2 10.85 50.2-26.45 55.65-26.45 55.9-23.25Q57.2-25.25 58.8-26.2 60.4-27.15 62.4-27.15L62.4-27.15ZM60.05-3.95Q61.95-3.95 62.95-6.13 63.95-8.3 63.95-13.25L63.95-13.25Q63.95-18.45 63.1-20.5 62.25-22.55 60.45-22.55L60.45-22.55Q58.15-22.55 56.35-19.25L56.35-19.25 56.35-6.45Q57.95-3.95 60.05-3.95L60.05-3.95ZM84.29-27.15Q89.29-27.15 92.07-23.65 94.84-20.15 94.84-13.25L94.84-13.25Q94.84-6.65 92.04-2.95 89.24 0.75 84.29 0.75L84.29 0.75Q79.34 0.75 76.54-2.88 73.74-6.5 73.74-13.25L73.74-13.25Q73.74-19.95 76.54-23.55 79.34-27.15 84.29-27.15L84.29-27.15ZM84.29-22.5Q82.14-22.5 81.14-20.38 80.14-18.25 80.14-13.25L80.14-13.25Q80.14-8.2 81.14-6.08 82.14-3.95 84.29-3.95L84.29-3.95Q86.44-3.95 87.44-6.08 88.44-8.2 88.44-13.25L88.44-13.25Q88.44-18.3 87.44-20.4 86.44-22.5 84.29-22.5L84.29-22.5ZM111.04-27.1Q112.19-27.1 113.09-26.75L113.09-26.75 112.09-20.85Q111.09-21.1 110.24-21.1L110.24-21.1Q108.34-21.1 107.24-19.45 106.14-17.8 105.54-14.55L105.54-14.55 105.54 0 99.39 0 99.39-26.45 104.74-26.45 105.19-21.85Q107.04-27.1 111.04-27.1L111.04-27.1ZM127.09-5L129.24-1.2Q126.79 0.75 123.49 0.75L123.49 0.75Q120.04 0.75 118.24-1.23 116.44-3.2 116.44-6.6L116.44-6.6 116.44-22 113.34-22 113.34-26.45 116.44-26.45 116.44-32.3 122.59-33.05 122.59-26.45 127.59-26.45 126.99-22 122.59-22 122.59-6.6Q122.59-4.2 124.64-4.2L124.64-4.2Q125.29-4.2 125.79-4.38 126.29-4.55 127.09-5L127.09-5ZM151.78-35.25Q155.83-35.25 158.16-33.08 160.48-30.9 160.48-27.35L160.48-27.35Q160.48-24.5 159.03-22.35 157.58-20.2 154.78-18.1L154.78-18.1 160.88-10.7Q162.23-14.65 162.93-18.35L162.93-18.35 167.88-17.1Q166.38-11.45 164.18-7.45L164.18-7.45 169.13-2.15 164.18 0.75 160.63-3.65Q158.68-1.4 156.43-0.33 154.18 0.75 151.43 0.75L151.43 0.75Q148.58 0.75 146.33-0.45 144.08-1.65 142.83-3.83 141.58-6 141.58-8.8L141.58-8.8Q141.58-11.85 142.96-14.08 144.33-16.3 147.33-18.6L147.33-18.6Q145.03-21 144.13-22.88 143.23-24.75 143.23-27.25L143.23-27.25Q143.23-30.75 145.43-33 147.63-35.25 151.78-35.25L151.78-35.25ZM151.88-31.15Q149.08-31.15 149.08-27.25L149.08-27.25Q149.08-25.5 149.63-24.23 150.18-22.95 151.58-21.15L151.58-21.15Q153.23-22.7 153.93-24 154.63-25.3 154.63-27.2L154.63-27.2Q154.63-31.15 151.88-31.15L151.88-31.15ZM150.68-15.25Q149.23-13.95 148.61-12.48 147.98-11 147.98-9L147.98-9Q147.98-6.5 149.18-5.15 150.38-3.8 152.43-3.8L152.43-3.8Q153.98-3.8 155.23-4.53 156.48-5.25 157.63-6.7L157.63-6.7 150.68-15.25ZM182.83-34.55L199.98-34.55 199.33-29.8 189.18-29.8 189.18-19.9 198.03-19.9 198.03-15.2 189.18-15.2 189.18-4.8 199.98-4.8 199.98 0 182.83 0 182.83-34.55ZM221.78-26.45L215.68-14.15 222.83 0 216.33 0 211.93-10.65 207.63 0 201.28 0 208.43-13.95 201.98-26.45 208.38-26.45 212.03-17.25 215.58-26.45 221.78-26.45ZM237.72-27.15Q241.62-27.15 243.62-23.58 245.62-20 245.62-13.3L245.62-13.3Q245.62-6.8 243.35-3.03 241.07 0.75 237.02 0.75L237.02 0.75Q233.82 0.75 231.67-2.1L231.67-2.1 231.67 10.15 225.52 10.85 225.52-26.45 230.97-26.45 231.22-23.25Q232.52-25.25 234.12-26.2 235.72-27.15 237.72-27.15L237.72-27.15ZM235.37-3.95Q237.27-3.95 238.27-6.13 239.27-8.3 239.27-13.25L239.27-13.25Q239.27-18.45 238.42-20.5 237.57-22.55 235.77-22.55L235.77-22.55Q233.47-22.55 231.67-19.25L231.67-19.25 231.67-6.45Q233.27-3.95 235.37-3.95L235.37-3.95ZM259.62-27.15Q264.62-27.15 267.39-23.65 270.17-20.15 270.17-13.25L270.17-13.25Q270.17-6.65 267.37-2.95 264.57 0.75 259.62 0.75L259.62 0.75Q254.67 0.75 251.87-2.88 249.07-6.5 249.07-13.25L249.07-13.25Q249.07-19.95 251.87-23.55 254.67-27.15 259.62-27.15L259.62-27.15ZM259.62-22.5Q257.47-22.5 256.47-20.38 255.47-18.25 255.47-13.25L255.47-13.25Q255.47-8.2 256.47-6.08 257.47-3.95 259.62-3.95L259.62-3.95Q261.77-3.95 262.77-6.08 263.77-8.2 263.77-13.25L263.77-13.25Q263.77-18.3 262.77-20.4 261.77-22.5 259.62-22.5L259.62-22.5ZM286.37-27.1Q287.52-27.1 288.42-26.75L288.42-26.75 287.42-20.85Q286.42-21.1 285.57-21.1L285.57-21.1Q283.67-21.1 282.57-19.45 281.47-17.8 280.87-14.55L280.87-14.55 280.87 0 274.72 0 274.72-26.45 280.07-26.45 280.52-21.85Q282.37-27.1 286.37-27.1L286.37-27.1ZM302.42-5L304.56-1.2Q302.12 0.75 298.81 0.75L298.81 0.75Q295.37 0.75 293.56-1.23 291.77-3.2 291.77-6.6L291.77-6.6 291.77-22 288.67-22 288.67-26.45 291.77-26.45 291.77-32.3 297.92-33.05 297.92-26.45 302.92-26.45 302.31-22 297.92-22 297.92-6.6Q297.92-4.2 299.97-4.2L299.97-4.2Q300.62-4.2 301.12-4.38 301.62-4.55 302.42-5L302.42-5Z" opacity="1" transform="matrix(1,0,0,1,0,0)" fill="#000000" class="slogan-text-1" data-fill-palette-color="secondary" id="text-1"></path></svg></g></svg></g></svg></g></svg></g><g><svg viewBox="0 0 222.89682279434152 241.26292017325494" height="241.26292017325494" width="222.89682279434152"><g><svg xmlns="http://www.w3.org/2000/svg" xmlns:xlink="http://www.w3.org/1999/xlink" version="1.1" x="0" y="0" viewBox="20.579887311951552 18.562890354618926 58.13771836275856 62.92810964538107" enable-background="new 0 0 100 100" xml:space="preserve" height="241.26292017325494" width="222.89682279434152" class="icon-icon-0" data-fill-palette-color="accent" id="icon-0"><g fill="#8b053a" data-fill-palette-color="accent"><path d="M77.34 61.709A0.5 0.5 0 0 0 76.463 61.521L74.924 63.463 72.348 64.812A0.5 0.5 0 0 0 72.086 65.172L71.591 68.129 70.377 70.176A0.5 0.5 0 0 0 70.313 70.509L70.764 73.345C70.81 73.633 71.095 73.803 71.287 73.765L73.478 73.636A0.5 0.5 0 0 0 73.898 73.357L78.023 64.914A0.5 0.5 0 0 0 78.058 64.573zM73.45 73.137L71.259 73.266 70.809 70.43 72.069 68.302 72.58 65.253 75.251 63.856 76.856 61.831 77.576 64.694z" fill="#8b053a" data-fill-palette-color="accent"></path><path d="M78.081 39.465L72.807 40.981 70.952 38.486A0.5 0.5 0 0 0 70.858 38.39L68.584 36.617 67.581 34.628A0.5 0.5 0 0 0 67.347 34.401L66.152 33.839 62.908 27.296A0.5 0.5 0 0 0 63.381 26.83L63.522 24.718A0.5 0.5 0 0 0 63.461 24.444L62.877 23.383A0.5 0.5 0 0 0 62.449 23.124L60.056 23.075H60.045A0.5 0.5 0 0 0 59.901 23.096L58.106 23.634 53.112 22.242A0.5 0.5 0 0 0 52.581 22.421L51.181 24.254 43.936 21.237 42.841 18.854A0.5 0.5 0 0 0 42.309 18.569C38.009 19.244 36.449 19.512 35.852 19.638L35.606 19.683C35.195 19.67 33.609 19.431 32.671 19.278A0.5 0.5 0 0 0 32.203 19.454L28.118 24.435 23.628 28.285A0.5 0.5 0 0 0 23.473 28.528L21.739 34.626 20.615 37.455A0.5 0.5 0 0 0 20.648 37.891L24.8 45.017A0.5 0.5 0 0 0 24.941 45.172L28.111 47.437A0.5 0.5 0 0 0 28.402 47.53H28.422C33.228 47.337 33.364 47.274 33.473 47.224 33.613 47.177 38.097 45.981 38.114 45.976L39.844 47.706A0.5 0.5 0 0 0 40.007 47.815L42.565 48.872 41.777 51.799A0.5 0.5 0 0 0 41.831 52.188C42.538 53.362 45.486 58.341 45.557 58.503 45.602 58.698 45.726 60.326 45.815 61.799L44.419 66.744A0.5 0.5 0 0 0 44.47 67.134L46.745 70.988 47.453 74.892A0.5 0.5 0 0 0 47.518 75.064L49.743 78.714 50.891 81.201C50.973 81.38 51.151 81.491 51.344 81.491 51.404 81.491 56.45 80.72 56.51 80.712A0.5 0.5 0 0 0 56.794 80.566L62.466 74.702A0.5 0.5 0 0 0 62.608 74.353V73.628L64.754 71.927A0.5 0.5 0 0 0 64.941 71.48L64.632 68.763 69.842 64.359A0.5 0.5 0 0 0 70.013 63.9L68.818 56.222 71.463 51.976C74.758 48.559 76.481 46.742 76.585 46.574 76.625 46.509 76.747 46.312 78.697 40.088A0.5 0.5 0 0 0 78.081 39.465M68.188 36.945L70.55 38.786 71.1 39.525 70.952 39.812 69.745 39.905A0.12 0.12 0 0 0 69.636 39.989L69.174 41.356A0.125 0.125 0 0 0 69.278 41.52L70.02 41.602 69.953 41.733A0.125 0.125 0 0 0 69.97 41.873L71.161 43.236C71.178 43.256 71.201 43.269 71.225 43.276L74.118 43.981 72.159 46.494 70.034 47.038A0.12 0.12 0 0 0 69.965 47.085L69.706 47.434 69.09 47.225A0.12 0.12 0 0 0 68.986 47.237L67.816 47.953C66.246 47.273 66.005 47.208 65.933 47.222A7 7 0 0 1 65.366 47.187C64.716 46.58 64.535 46.421 64.478 46.377 64.394 46.271 63.812 45.341 63.457 44.769A0.13 0.13 0 0 0 63.416 44.728L62.542 44.188C63.028 43.852 63.292 43.655 63.33 43.602 63.36 43.559 63.405 43.495 63.258 42.452L64.92 40.294A0.12 0.12 0 0 0 64.946 40.223L65.061 37.445 67.256 35.097zM70.814 40.072L70.142 41.365 69.458 41.289 69.845 40.147zM65.781 34.219L67.134 34.855 67.139 34.863 64.843 37.315A0.13 0.13 0 0 0 64.813 37.391L64.698 40.172 63.028 42.34A0.12 0.12 0 0 0 63.004 42.434C63.064 42.848 63.118 43.337 63.112 43.468 63.012 43.552 62.61 43.839 62.244 44.09A0.126 0.126 0 0 0 62.249 44.3L63.26 44.925C64.263 46.542 64.296 46.56 64.324 46.573 64.368 46.605 64.677 46.889 64.959 47.151 64.551 47.114 64.094 47.07 63.737 47.035A0.13 0.13 0 0 0 63.635 47.073L63.287 47.432 61.048 47.898 59.989 47.178A0.13 0.13 0 0 0 59.892 47.159L58.74 47.412 58.115 46.934 57.763 46.078A0.1 0.1 0 0 0 57.741 46.042C55.986 44.088 55.861 44.085 55.802 44.084A0.2 0.2 0 0 0 55.749 44.093C55.631 44.083 55.162 43.916 54.755 43.751L54.246 41.89C54.244 41.883 54.236 41.88 54.232 41.873L54.238 41.871 53.497 40.273 54.189 38.15 54.962 38.105A0.126 0.126 0 0 0 55.08 37.98V34.483C55.709 34.176 55.715 34.167 55.739 34.124 55.751 34.102 55.757 34.086 55.68 32.779L61.817 32.778 62.735 32.903 62.752 32.904A0.13 0.13 0 0 0 62.849 32.859C63.538 32.035 63.974 31.508 64.263 31.152zM59.448 53.305L59.396 52.549 59.837 51.736 60.716 52.056 60.713 52.919zM60.713 53.182L60.711 53.725 59.545 54.714 59.465 53.561zM59.924 51.501L60.188 50.235C61.188 49.401 61.172 49.308 61.161 49.235A26 26 0 0 1 61.145 48.133L63.293 47.686 64.064 48.808 63.304 50.682A0.1 0.1 0 0 0 63.295 50.721L63.23 51.667 60.859 51.843zM48.672 48.628L47.657 47.488 47.306 46.126 48.227 45.01A426 426 0 0 1 51.874 43.641C51.914 43.631 52.005 43.607 53.307 42.254L54.035 42.073 54.528 43.876C54.538 43.913 54.565 43.944 54.6 43.959 55.371 44.273 55.658 44.343 55.778 44.341 55.971 44.486 56.807 45.379 57.54 46.193L57.81 46.853 56.74 46.674A0.1 0.1 0 0 0 56.681 46.678L53.799 47.577 51.927 46.721A0.13 0.13 0 0 0 51.827 46.719L50.854 47.121A0.12 0.12 0 0 0 50.783 47.202C50.713 47.44 50.639 47.686 50.567 47.922L49.3 48.074A0.13 0.13 0 0 0 49.198 48.153L48.995 48.683 48.704 48.979V48.711A0.12 0.12 0 0 0 48.672 48.628M47.735 40.562A0.1 0.1 0 0 0 47.703 40.505L46.824 39.591 46.676 38.826C48.279 36.957 48.285 36.865 48.288 36.816 48.296 36.73 48.541 35.15 48.705 34.109A0.12 0.12 0 0 0 48.684 34.019L47.896 32.876V31.891L48.763 31.598 54.828 34.48V37.858L54.088 37.901A0.12 0.12 0 0 0 53.977 37.987L53.243 40.237A0.13 0.13 0 0 0 53.248 40.329L53.946 41.835 53.212 42.018A0.13 0.13 0 0 0 53.151 42.053C52.565 42.664 51.889 43.346 51.813 43.397 51.718 43.421 48.981 44.456 48.209 44.748L47.252 43.021 47.633 42.868 48.143 42.903C48.208 42.922 48.295 42.84 48.273 42.749zM46.57 39.581L45.729 40.011 44.714 39.539A0.12 0.12 0 0 0 44.601 39.543L43.29 40.27 41.374 39.979 40.499 39.244A0.12 0.12 0 0 0 40.368 39.225L38.542 40.038A0.12 0.12 0 0 0 38.469 40.138L38.38 40.915 37.989 40.449A0.13 0.13 0 0 0 37.88 40.405L37.468 40.45 37.492 40.299A0.13 0.13 0 0 0 37.445 40.18C37.035 39.866 36.428 39.399 36.307 39.303A5 5 0 0 1 36.248 39.027 5 5 0 0 0 36.108 38.428L36.895 38.216H38.472A0.12 0.12 0 0 0 38.576 38.159L39.189 37.221A0.13 0.13 0 0 0 39.21 37.153V34.878L40.631 34.714A0.1 0.1 0 0 0 40.689 34.692L45.478 31.304 47.086 32.126A0.12 0.12 0 0 0 47.183 32.133L47.648 31.976V32.915C47.648 32.94 47.656 32.965 47.67 32.986L48.452 34.119C48.388 34.53 48.076 36.52 48.044 36.774 47.945 36.944 47.021 38.042 46.449 38.709A0.13 0.13 0 0 0 46.421 38.814zM32.876 29.651V29.622L37.302 33.082 38.362 34.901A0.12 0.12 0 0 0 38.47 34.963L38.484 34.962 38.958 34.907V37.116L38.403 37.966H36.877A0.1 0.1 0 0 0 36.844 37.97L35.905 38.223C35.641 38.19 34.606 38.249 34.495 38.282 34.382 38.316 33.578 38.971 32.91 39.528H32.104A0.13 0.13 0 0 0 31.988 39.607L31.091 41.849 29.239 42.009 28.577 39.99A0.13 0.13 0 0 0 28.503 39.912 0.12 0.12 0 0 0 28.395 39.921L27.791 40.275C27.382 40.258 26.937 40.237 26.801 40.231A75 75 0 0 1 26.373 38.208L26.894 37.187 28.472 37.59 31.32 37.832A0.12 0.12 0 0 0 31.414 37.801 0.12 0.12 0 0 0 31.456 37.712L31.729 29.651zM32.187 39.779H32.954C32.983 39.779 33.012 39.769 33.034 39.75 33.706 39.19 34.475 38.568 34.565 38.522 34.674 38.493 35.648 38.444 35.853 38.464 35.9 38.567 35.967 38.905 36 39.075 36.062 39.39 36.073 39.433 36.119 39.474 36.161 39.512 36.957 40.122 37.231 40.332L37.1 41.154H36.692A0.12 0.12 0 0 0 36.609 41.186L36.172 41.577 35.443 41.348 35.442 41.35C35.333 41.314 34.964 41.293 33.374 41.405A0.13 0.13 0 0 0 33.267 41.483L32.928 42.329 31.915 42.55 31.323 41.938zM58.111 24.156L60.044 23.576 62.438 23.625 63.022 24.686 62.88 26.798 61.333 25.251 64.135 30.901C63.743 31.386 63.143 32.111 62.697 32.644L61.832 32.527H55.664C55.581 31.116 55.417 28.431 55.103 23.318zM51.344 24.865L52.979 22.726 54.848 23.247C55.074 26.91 55.46 33.247 55.5 33.992 55.396 34.046 55.17 34.159 54.953 34.265L48.825 31.353A0.12 0.12 0 0 0 48.731 31.347L47.151 31.881 44.224 30.385C44.142 29.719 44.075 28.993 44.098 28.888H44.097C44.143 28.749 44.147 28.214 43.991 25.762L44.652 25.075A0.13 0.13 0 0 0 44.687 24.989V24.356L46.01 22.644zM43.312 22.04L43.4 21.273 43.562 21.625 45.769 22.544 44.461 24.236A0.13 0.13 0 0 0 44.435 24.313V24.938L43.903 25.491 42.769 22.808 43.289 22.1A0.1 0.1 0 0 0 43.312 22.04M42.386 19.064L43.2 20.835 43.068 21.978 42.527 22.717A0.13 0.13 0 0 0 42.512 22.84L43.739 25.743C43.808 26.823 43.902 28.561 43.871 28.785 43.829 28.884 43.825 29.198 43.983 30.48 43.988 30.522 44.013 30.557 44.05 30.576L45.224 31.176 40.568 34.47 38.536 34.704 37.505 32.935A0.1 0.1 0 0 0 37.474 32.899L30.456 27.412 30.673 26.304 34.532 24.766A0.13 0.13 0 0 0 34.609 24.672L34.732 23.98 36.502 23.642A0.125 0.125 0 0 0 36.601 23.495L35.945 20.123C37.077 19.898 42.386 19.064 42.386 19.064M28.476 24.789L32.589 19.774S35.686 20.184 35.7 20.18L36.331 23.422 34.6 23.753A0.125 0.125 0 0 0 34.5 23.854L34.375 24.562 30.518 26.099A0.12 0.12 0 0 0 30.442 26.191L30.32 26.812 26.563 26.429zM23.953 28.667L26.302 26.653 30.273 27.058 30.198 27.44 30.199 27.443H30.198L30.048 28.312 27.627 28.277H27.625A0.126 0.126 0 0 0 27.5 28.389C27.417 29.219 27.303 30.137 27.251 30.302 27.157 30.368 26.759 30.596 26.4 30.793A0.13 0.13 0 0 0 26.337 30.883L26.146 32.079 23.074 31.763zM22.213 34.79L23.004 32.007 26.237 32.34H26.25A0.126 0.126 0 0 0 26.374 32.235L26.574 30.983C26.811 30.853 27.357 30.548 27.435 30.475 27.475 30.438 27.549 30.371 27.737 28.529L30.15 28.564H30.152A0.125 0.125 0 0 0 30.275 28.46L30.408 27.692 32.596 29.403H31.607A0.125 0.125 0 0 0 31.482 29.524L31.209 37.574 28.513 37.346 26.859 36.921A0.12 0.12 0 0 0 26.716 36.985L26.233 37.932 25.157 36.124A0.12 0.12 0 0 0 25.026 36.065L22.874 36.477 21.541 36.479zM21.662 38.643L24.03 38.715 24.328 39.014 21.918 39.082zM22.061 39.325L24.625 39.256A0.125 0.125 0 0 0 24.71 39.042L24.172 38.503A0.13 0.13 0 0 0 24.088 38.466L21.514 38.387 21.08 37.641 21.443 36.726 22.899 36.722 24.988 36.325 26.124 38.234C26.339 39.301 26.453 39.846 26.52 40.128L25.098 39.537C25.085 39.531 25.074 39.547 25.061 39.546L25.063 39.527C23.899 39.411 23.8 39.461 23.772 39.476 23.692 39.508 22.969 39.674 22.345 39.813zM22.478 40.043C23.065 39.912 23.802 39.744 23.867 39.709 23.945 39.691 24.368 39.718 24.803 39.757L24.188 40.501C24.007 40.673 23.552 41.108 23.262 41.388zM23.391 41.611C23.633 41.377 24.054 40.974 24.371 40.672L25.088 39.806 26.65 40.455C26.68 40.47 26.727 40.484 27.818 40.528 27.843 40.525 27.865 40.523 27.886 40.511L28.387 40.217 29.022 42.155 28.737 44.179 28.07 44.334 27.851 43.206A0.12 0.12 0 0 0 27.786 43.119 0.12 0.12 0 0 0 27.677 43.116L27.18 43.341C27.239 42.411 27.132 42.339 27.071 42.307 27.06 42.301 25.869 41.709 25.75 41.709 25.709 41.709 25.639 41.721 24.016 42.684zM25.23 44.768L24.142 42.899C24.766 42.529 25.575 42.055 25.756 41.965 25.938 42.035 26.731 42.412 26.924 42.511 26.958 42.631 26.949 43.095 26.919 43.495A83 83 0 0 1 25.721 45.119zM29.282 47L28.4 47.035 25.926 45.266C26.143 44.989 26.499 44.507 27.124 43.641L27.636 43.409 27.85 44.509A0.125 0.125 0 0 0 28.001 44.607L28.442 44.504V45.502C28.442 45.542 28.461 45.579 28.493 45.603 28.84 45.858 29.22 46.153 29.353 46.276 29.318 46.387 29.293 46.598 29.282 47M29.535 46.986C29.545 46.698 29.562 46.443 29.586 46.361 29.605 46.344 29.593 46.217 29.581 46.195 29.515 46.079 29.319 45.917 28.692 45.438V44.445L28.878 44.402A0.13 0.13 0 0 0 28.974 44.298L29.261 42.258 31.13 42.097 31.785 42.774C31.815 42.805 31.86 42.817 31.901 42.809L32.934 42.584 33.251 43.652C32.562 45.287 32.562 45.344 32.562 45.374 32.562 45.394 32.566 45.459 32.955 46.809 32.284 46.862 30.654 46.938 29.535 46.986M33.208 46.785A61 61 0 0 1 32.815 45.38C32.869 45.217 33.256 44.285 33.499 43.709A0.12 0.12 0 0 0 33.503 43.625L33.152 42.445 33.47 41.65C34.267 41.595 35.128 41.555 35.325 41.576 35.388 41.702 35.553 42.146 35.692 42.549L35.892 46.054C34.639 46.388 33.229 46.781 33.208 46.785M36.536 45.881L36.14 45.987 35.942 42.516A0.1 0.1 0 0 0 35.935 42.483C35.811 42.123 35.713 41.857 35.637 41.671L36.11 41.82 36.536 42.783zM36.788 45.815V42.757A0.1 0.1 0 0 0 36.777 42.706L36.354 41.75 36.741 41.405H37.207A0.125 0.125 0 0 0 37.331 41.3L37.426 40.707 37.84 40.662 38.343 41.262 38.285 42.616C37.98 43.073 37.635 43.577 37.582 43.633 37.538 43.68 37.468 43.758 37.739 45.563zM40.196 47.357L38.261 45.424 37.984 45.497C37.871 44.727 37.77 43.941 37.786 43.778 37.922 43.609 38.411 42.877 38.513 42.723A0.12 0.12 0 0 0 38.534 42.659L38.596 41.222 38.71 40.236 40.397 39.486 41.239 40.193A0.13 0.13 0 0 0 41.301 40.221L43.294 40.524A0.12 0.12 0 0 0 43.373 40.51L44.665 39.793 45.677 40.264A0.13 0.13 0 0 0 45.786 40.262L46.683 39.804 47.109 40.246 47.112 40.805 46.935 41.596 45.699 43.02A0.1 0.1 0 0 0 45.677 43.056L44.724 45.484 44.179 45.113A0.12 0.12 0 0 0 44.049 45.107L42.531 45.931A0.12 0.12 0 0 0 42.466 46.041V46.904L41.818 48.027zM42.05 48.124L42.698 47A0.13 0.13 0 0 0 42.715 46.937V46.115L44.101 45.363 44.712 45.779A0.13 0.13 0 0 0 44.819 45.795 0.13 0.13 0 0 0 44.898 45.721L45.9 43.168 47.143 41.736A0.13 0.13 0 0 0 47.171 41.681L47.358 40.832V40.505L47.5 40.653 47.99 42.642 47.622 42.617A0.1 0.1 0 0 0 47.567 42.625L47.028 42.841A0.126 0.126 0 0 0 46.965 43.018L48.001 44.89 47.075 46.012A0.12 0.12 0 0 0 47.05 46.123L47.425 47.576A0.13 0.13 0 0 0 47.453 47.628L48.456 48.755V49.669L47.779 49.208A0.1 0.1 0 0 0 47.711 49.187L43.02 49.099 43.159 48.582zM44.534 49.378V50.156C43.956 50.154 43.176 50.152 42.736 50.153L42.953 49.348zM42.256 51.934L42.669 50.402C43.097 50.4 44.007 50.403 44.659 50.406A0.127 0.127 0 0 0 44.784 50.281V49.382L45.999 49.405 46.066 50.29A0.125 0.125 0 0 0 46.206 50.404C46.457 50.372 46.732 50.341 46.889 50.327 46.853 50.549 46.765 51.019 46.681 51.443A0.13 0.13 0 0 0 46.706 51.546L47.057 51.986C46.892 52.531 46.701 53.111 46.612 53.314 46.281 53.169 45.366 52.789 45.227 52.929A4 4 0 0 1 44.733 53.164 0.126 0.126 0 0 0 44.66 53.308L44.885 54.287 44.006 54.857C43.111 53.354 42.256 51.934 42.256 51.934M44.135 55.073L45.095 54.451A0.125 0.125 0 0 0 45.149 54.318L44.927 53.355C45.094 53.282 45.271 53.2 45.359 53.14 45.561 53.167 46.492 53.517 46.581 53.568A0.15 0.15 0 0 0 46.702 53.588C46.769 53.567 46.853 53.538 47.315 51.997A0.12 0.12 0 0 0 47.293 51.883L46.938 51.436C47.186 50.18 47.176 50.169 47.119 50.111 47.069 50.06 47.057 50.047 46.306 50.14L46.251 49.41 47.67 49.437 48.512 50.01A0.125 0.125 0 0 0 48.707 49.906V49.333L49.194 48.837A0.1 0.1 0 0 0 49.221 48.795L49.407 48.312 50.49 48.182C50.317 48.747 50.166 49.214 50.116 49.317 50.04 49.413 49.991 49.81 49.87 51.596L48.588 52.655A0.12 0.12 0 0 0 48.543 52.751V54.199L47.525 55.203 47.34 54.905C47.316 54.866 47.273 54.839 47.228 54.846L45.941 54.909A0.13 0.13 0 0 0 45.879 54.929C45.209 55.363 44.819 55.64 44.583 55.828zM44.71 56.045C44.999 55.818 45.503 55.471 45.985 55.158L47.165 55.101 47.393 55.47A0.128 0.128 0 0 0 47.588 55.492L48.755 54.341A0.12 0.12 0 0 0 48.792 54.252V52.812L50.07 51.755A0.12 0.12 0 0 0 50.115 51.667C50.181 50.688 50.273 49.583 50.314 49.464H50.313C50.4 49.321 50.557 48.862 51.007 47.331L51.873 46.972 53.739 47.826A0.12 0.12 0 0 0 53.828 47.831L56.726 46.927 57.958 47.133 58.632 47.648A0.13 0.13 0 0 0 58.736 47.671L59.892 47.418 60.896 48.101C60.896 48.387 60.898 49.051 60.91 49.239 60.827 49.353 60.383 49.751 59.994 50.074A0.12 0.12 0 0 0 59.952 50.145L59.662 51.542 59.159 52.465A0.12 0.12 0 0 0 59.144 52.533L59.312 54.981C59.312 54.993 59.316 55.002 59.318 55.014L60.355 58.035H59.437V58.031A0.13 0.13 0 0 0 59.34 58.077C59.111 58.357 58.748 58.794 58.699 58.846 58.659 58.885 58.595 58.952 58.47 61.217A0.125 0.125 0 0 0 58.57 61.346L59.619 61.574 59.716 62.481 59.028 62.498 58.751 61.621A0.13 0.13 0 0 0 58.646 61.535L57.963 61.464 55.873 60.728 55.196 60.361C55.119 60.316 55.025 60.373 55.014 60.45L54.999 60.536 53.764 60.507 53.372 59.096 53.486 57.483A0.125 0.125 0 0 0 53.386 57.352L51.359 56.922A0.12 0.12 0 0 0 51.214 57.005L50.929 57.865 49.723 57.896 48.813 56.164A0.13 0.13 0 0 0 48.702 56.098H45.761A0.1 0.1 0 0 0 45.696 56.117L45.002 56.542zM63.393 61.954L64.391 63.726 63.842 65.409 63.293 64.758 63.533 63.653A0.13 0.13 0 0 0 63.468 63.514L62.51 63.028 63.044 60.182A0.13 0.13 0 0 0 63.029 60.096L62.613 59.391 63.329 59.514 63.705 60.824 63.383 61.858A0.12 0.12 0 0 0 63.393 61.954M62.789 60.182L62.259 63.004 59.936 63.854A0.13 0.13 0 0 0 59.86 63.938L59.756 64.301 58.853 64.475A0.12 0.12 0 0 0 58.783 64.516L57.98 65.442 55.834 66.086 55.244 65.683A0.1 0.1 0 0 0 55.163 65.662L54.235 65.739C53.93 65.444 53.514 65.03 53.485 64.974V62.349H54.832A0.124 0.124 0 0 0 54.955 62.245L55.229 60.663 55.77 60.955 57.907 61.706 58.536 61.774 58.817 62.664C58.835 62.717 58.887 62.765 58.94 62.751L59.856 62.73C59.926 62.73 59.984 62.673 59.979 62.592L59.858 61.459A0.12 0.12 0 0 0 59.759 61.351L58.727 61.127C58.778 60.189 58.852 59.17 58.895 59.004 58.996 58.892 59.369 58.439 59.496 58.284H60.495L62.278 59.313zM52.302 72.971L51.708 72.016V69.787H52.379A0.125 0.125 0 0 0 52.504 69.662V67.08L55.746 66.366 56.361 67.493 57.549 69.26A0.1 0.1 0 0 0 57.596 69.302L58.713 69.875 56.828 71.469 54.996 72.59 54 72.318A0.12 0.12 0 0 0 53.893 72.339L52.323 73.533V73.035A0.2 0.2 0 0 0 52.302 72.971M57.738 69.091L56.575 67.362 55.995 66.298 58.085 65.671A0.13 0.13 0 0 0 58.143 65.633L58.942 64.712 59.831 64.542 61.983 65.847 61.325 69.116 60.37 70.025 58.981 69.73zM46.316 61.857C46.317 61.859 46.124 58.635 46.02 58.326 45.988 58.23 45.621 57.592 45.129 56.754L45.797 56.346H48.628L49.539 58.079A0.13 0.13 0 0 0 49.65 58.146H49.653L51.026 58.109A0.12 0.12 0 0 0 51.141 58.023L51.417 57.187 53.229 57.57 53.122 59.097A0.1 0.1 0 0 0 53.126 59.138L53.548 60.659C53.564 60.712 53.611 60.749 53.666 60.751L54.956 60.781 54.727 62.094H53.36A0.126 0.126 0 0 0 53.235 62.219V64.969C53.235 65.018 53.244 65.133 53.887 65.762L50.614 66.033C48.83 65.858 46.282 65.598 45.298 65.47zM47.944 74.811L47.22 70.817 44.9 66.886 45.232 65.71C45.861 65.805 47.295 65.961 50.613 66.284L55.138 65.913 55.502 66.162 52.353 66.855A0.126 0.126 0 0 0 52.255 66.978V69.536H51.584A0.125 0.125 0 0 0 51.459 69.661V74.783L50.597 75.209 49.368 74.559A0.12 0.12 0 0 0 49.229 74.575L48.284 75.369zM56.436 80.227L51.344 81 50.184 78.486 48.414 75.583 49.324 74.818 50.534 75.46A0.13 0.13 0 0 0 50.648 75.462L51.638 74.973A0.12 0.12 0 0 0 51.707 74.862V72.49L52.069 73.073V73.787C52.069 73.884 52.181 73.951 52.27 73.887L53.993 72.577 54.981 72.846A0.14 0.14 0 0 0 55.079 72.831L56.972 71.671 58.97 69.984 60.294 70.265 60.638 72.792 60.329 72.67A0.13 0.13 0 0 0 60.183 72.712L59.65 73.43A0.125 0.125 0 0 0 59.652 73.582L60.349 74.457A0.125 0.125 0 0 0 60.547 74.453L60.976 73.863 61.687 74.796zM60.678 73.075L60.739 73.521A0.2 0.2 0 0 0 60.762 73.58L60.819 73.654 60.444 74.173 59.91 73.502 60.329 72.938zM69.518 63.986L64.106 68.56 64.444 71.542 62.108 73.394V74.361L61.864 74.614 60.981 73.455 60.54 70.206 61.526 69.268A0.12 0.12 0 0 0 61.561 69.203L62.246 65.809A0.13 0.13 0 0 0 62.188 65.677L60 64.352 60.081 64.067 62.359 63.233 63.267 63.694 63.035 64.766A0.13 0.13 0 0 0 63.06 64.872L63.793 65.742C63.859 65.816 63.979 65.792 64.008 65.7L64.644 63.752A0.13 0.13 0 0 0 64.633 63.652L63.636 61.879 63.92 60.965 65.699 61.301A0.1 0.1 0 0 0 65.766 61.295L68.911 60.092zM68.873 59.839L65.712 61.049 63.934 60.713 63.547 59.368A0.13 0.13 0 0 0 63.448 59.279L62.412 59.101 60.633 58.073 59.584 55.01 60.918 53.877A0.13 0.13 0 0 0 60.962 53.782L60.967 52.085 63.311 51.91 68.479 55.826 68.294 56.123zM68.613 55.613L63.478 51.722 63.545 50.755 64.322 48.838A0.12 0.12 0 0 0 64.309 48.72L63.51 47.56 63.772 47.29C65.418 47.453 65.839 47.473 65.958 47.468 66.08 47.49 66.981 47.865 67.774 48.209A0.13 0.13 0 0 0 67.889 48.2L69.063 47.481 69.548 47.646 68.947 48.457A0.12 0.12 0 0 0 68.923 48.531V51.782C68.922 51.802 68.927 51.822 68.938 51.84 69.444 52.802 69.723 53.305 69.882 53.576zM76.159 46.319C76.029 46.528 71.066 51.676 71.066 51.676L70.031 53.337A63 63 0 0 1 69.173 51.752V48.573L70.137 47.27 72.261 46.726A0.13 0.13 0 0 0 72.328 46.682L74.432 43.983A0.126 0.126 0 0 0 74.364 43.784L71.323 43.043 70.215 41.774 71.269 39.748 72.615 41.558 78.222 39.947C78.219 39.946 76.288 46.11 76.159 46.319" fill="#8b053a" data-fill-palette-color="accent"></path><path d="M58.15 75.059A0.13 0.13 0 0 0 58.013 75.055L56.665 75.868A0.125 0.125 0 0 0 56.612 76.02L56.979 76.958A0.125 0.125 0 0 0 57.145 77.028L58.028 76.641A0.13 0.13 0 0 0 58.087 76.588L58.681 75.573A0.125 0.125 0 0 0 58.644 75.408zM57.895 76.426L57.166 76.744 56.885 76.025 58.073 75.31 58.407 75.545z" fill="#8b053a" data-fill-palette-color="accent"></path></g></svg></g></svg></g></svg></g><defs></defs></svg><rect width="395.52" height="149.12714950454955" fill="none" stroke="none" visibility="hidden"></rect></g></svg></g></svg>